<svg width="20" height="20" viewBox="0 0 20 20" fill="none" xmlns="http://www.w3.org/2000/svg">
<mask id="path-1-inside-1_436_228" fill="white">
<path fill-rule="evenodd" clip-rule="evenodd" d="M6.59575 2.17683e-05C2.74939 1.39291 0.0010007 5.07813 0.00100032 9.40527C0.000999842 14.9281 4.47815 19.4053 10.001 19.4053C14.3281 19.4053 18.0134 16.6569 19.4063 12.8105C18.3434 13.1954 17.1967 13.4053 16.001 13.4053C10.4782 13.4053 6.001 8.92812 6.001 3.40527C6.001 2.20957 6.21086 1.06287 6.59575 2.17683e-05Z"/>
</mask>
<path d="M6.59575 2.17683e-05L7.536 0.340514L8.2631 -1.66733L6.25526 -0.940225L6.59575 2.17683e-05ZM19.4063 12.8105L20.3465 13.151L21.0736 11.1432L19.0658 11.8703L19.4063 12.8105ZM1.001 9.40527C1.001 5.51241 3.47308 2.19439 6.93625 0.940268L6.25526 -0.940225C2.0257 0.591429 -0.998999 4.64385 -0.999 9.40527L1.001 9.40527ZM10.001 18.4053C5.03044 18.4053 1.001 14.3758 1.001 9.40527L-0.999 9.40527C-0.999 15.4804 3.92587 20.4053 10.001 20.4053L10.001 18.4053ZM18.466 12.47C17.2119 15.9332 13.8939 18.4053 10.001 18.4053L10.001 20.4053C14.7624 20.4053 18.8148 17.3806 20.3465 13.151L18.466 12.47ZM19.0658 11.8703C18.1105 12.2162 17.0789 12.4053 16.001 12.4053L16.001 14.4053C17.3145 14.4053 18.5763 14.1746 19.7467 13.7508L19.0658 11.8703ZM16.001 12.4053C11.0304 12.4053 7.001 8.37583 7.001 3.40527L5.001 3.40527C5.001 9.4804 9.92587 14.4053 16.001 14.4053L16.001 12.4053ZM7.001 3.40527C7.001 2.32734 7.19007 1.29578 7.536 0.340514L5.65551 -0.340471C5.23165 0.829972 5.001 2.0918 5.001 3.40527L7.001 3.40527Z" fill="#E7DEC1" mask="url(#path-1-inside-1_436_228)"/>
</svg>
