<svg width="20" height="20" viewBox="0 0 20 20" fill="none" xmlns="http://www.w3.org/2000/svg">
<mask id="path-1-inside-1_387_125" fill="white">
<path fill-rule="evenodd" clip-rule="evenodd" d="M6.59478 2.17683e-05C2.74841 1.39291 2.44196e-05 5.07813 2.40413e-05 9.40527C2.35585e-05 14.9281 4.47718 19.4053 10 19.4053C14.3272 19.4053 18.0124 16.6569 19.4053 12.8105C18.3424 13.1954 17.1957 13.4053 16 13.4053C10.4772 13.4053 6.00002 8.92812 6.00002 3.40527C6.00002 2.20957 6.20989 1.06287 6.59478 2.17683e-05Z"/>
</mask>
<path d="M6.59478 2.17683e-05L8.00515 0.51076L9.0958 -2.501L6.08404 -1.41035L6.59478 2.17683e-05ZM19.4053 12.8105L20.8156 13.3213L21.9063 10.3095L18.8945 11.4002L19.4053 12.8105ZM1.50002 9.40527C1.50002 5.72955 3.83395 2.59513 7.10552 1.41039L6.08404 -1.41035C1.66288 0.190689 -1.49998 4.4267 -1.49998 9.40527L1.50002 9.40527ZM10 17.9053C5.3056 17.9053 1.50002 14.0997 1.50002 9.40527L-1.49998 9.40527C-1.49998 15.7565 3.64875 20.9053 10 20.9053L10 17.9053ZM17.9949 12.2998C16.8102 15.5714 13.6757 17.9053 10 17.9053L10 20.9053C14.9786 20.9053 19.2146 17.7424 20.8156 13.3213L17.9949 12.2998ZM18.8945 11.4002C17.9931 11.7266 17.0191 11.9053 16 11.9053L16 14.9053C17.3724 14.9053 18.6918 14.6642 19.916 14.2209L18.8945 11.4002ZM16 11.9053C11.3056 11.9053 7.50002 8.09969 7.50002 3.40527L4.50002 3.40527C4.50002 9.75655 9.64875 14.9053 16 14.9053L16 11.9053ZM7.50002 3.40527C7.50002 2.38622 7.6787 1.41223 8.00515 0.51076L5.18441 -0.510717C4.74107 0.713522 4.50002 2.03291 4.50002 3.40527L7.50002 3.40527Z" fill="#E7DEC1" mask="url(#path-1-inside-1_387_125)"/>
</svg>
