<svg width="20" height="20" viewBox="0 0 20 20" fill="none" xmlns="http://www.w3.org/2000/svg">
<path d="M18.6777 19.4638C19.0229 19.4638 19.3027 19.184 19.3027 18.8388V13.2138C19.3027 12.8686 19.0229 12.5888 18.6777 12.5888C18.3326 12.5888 18.0527 12.8686 18.0527 13.2138V18.2138H13.0527C12.7076 18.2138 12.4277 18.4936 12.4277 18.8388C12.4277 19.184 12.7076 19.4638 13.0527 19.4638H18.6777ZM1.00006 0.536137C0.654887 0.536137 0.375065 0.815959 0.375065 1.16114L0.375065 6.78614C0.375065 7.13131 0.654888 7.41114 1.00007 7.41114C1.34524 7.41114 1.62507 7.13132 1.62507 6.78614V1.78614H6.62507C6.97024 1.78614 7.25007 1.50632 7.25007 1.16114C7.25007 0.81596 6.97024 0.536137 6.62507 0.536137L1.00006 0.536137ZM19.1197 18.3969L1.44201 0.719195L0.558123 1.60308L18.2358 19.2807L19.1197 18.3969Z" fill="white"/>
<path d="M0.375 18.8388C0.375 19.184 0.654822 19.4638 1 19.4638H6.625C6.97018 19.4638 7.25 19.184 7.25 18.8388C7.25 18.4936 6.97018 18.2138 6.625 18.2138H1.625V13.2138C1.625 12.8686 1.34518 12.5888 1 12.5888C0.654822 12.5888 0.375 12.8686 0.375 13.2138V18.8388ZM19.3027 1.16114C19.3027 0.815959 19.0228 0.536137 18.6777 0.536137L13.0527 0.536137C12.7075 0.536137 12.4277 0.81596 12.4277 1.16114C12.4277 1.50632 12.7075 1.78614 13.0527 1.78614H18.0527V6.78614C18.0527 7.13132 18.3325 7.41114 18.6777 7.41114C19.0228 7.41114 19.3027 7.13131 19.3027 6.78614L19.3027 1.16114ZM1.44194 19.2807L19.1196 1.60308L18.2357 0.719195L0.558058 18.3969L1.44194 19.2807Z" fill="white"/>
</svg>
