<svg width="16" height="16" viewBox="0 0 16 16" fill="none" xmlns="http://www.w3.org/2000/svg">
<path d="M0.375 15.3224C0.375 15.6676 0.654822 15.9474 1 15.9474H6.625C6.97018 15.9474 7.25 15.6676 7.25 15.3224C7.25 14.9772 6.97018 14.6974 6.625 14.6974H1.625L1.625 9.69739C1.625 9.35221 1.34518 9.07239 1 9.07239C0.654822 9.07239 0.375 9.35221 0.375 9.69739L0.375 15.3224ZM15.9474 0.999943C15.9474 0.654765 15.6676 0.374943 15.3224 0.374943L9.69744 0.374943C9.35227 0.374943 9.07244 0.654765 9.07244 0.999943C9.07244 1.34512 9.35227 1.62494 9.69744 1.62494H14.6974V6.62494C14.6974 6.97012 14.9773 7.24994 15.3224 7.24994C15.6676 7.24994 15.9474 6.97012 15.9474 6.62494L15.9474 0.999943ZM1.44194 15.7643L15.7644 1.44189L14.8805 0.558002L0.558058 14.8804L1.44194 15.7643Z" fill="#161616"/>
</svg>
