<svg width="23" height="23" viewBox="0 0 23 23" fill="none" xmlns="http://www.w3.org/2000/svg">
<path d="M0.25 21.6647C0.25 22.0789 0.585786 22.4147 1 22.4147H7.75C8.16421 22.4147 8.5 22.0789 8.5 21.6647C8.5 21.2505 8.16421 20.9147 7.75 20.9147H1.75V14.9147C1.75 14.5005 1.41421 14.1647 1 14.1647C0.585786 14.1647 0.25 14.5005 0.25 14.9147L0.25 21.6647ZM22.0793 1.33535C22.0793 0.921138 21.7435 0.585352 21.3293 0.585352L14.5793 0.585352C14.1651 0.585352 13.8293 0.921138 13.8293 1.33535C13.8293 1.74957 14.1651 2.08535 14.5793 2.08535H20.5793V8.08535C20.5793 8.49957 20.9151 8.83535 21.3293 8.83535C21.7435 8.83535 22.0793 8.49957 22.0793 8.08535L22.0793 1.33535ZM1.53033 22.195L21.8597 1.86568L20.799 0.805022L0.46967 21.1343L1.53033 22.195Z" fill="#E7DEC1"/>
</svg>
