<svg width="22" height="22" viewBox="0 0 22 22" fill="none" xmlns="http://www.w3.org/2000/svg">
<path d="M0.5 21C0.5 21.2761 0.723858 21.5 1 21.5H5.5C5.77614 21.5 6 21.2761 6 21C6 20.7239 5.77614 20.5 5.5 20.5H1.5V16.5C1.5 16.2239 1.27614 16 1 16C0.723858 16 0.5 16.2239 0.5 16.5L0.5 21ZM21.4999 1.00013C21.4999 0.72399 21.276 0.500133 20.9999 0.500133H16.4999C16.2237 0.500133 15.9999 0.72399 15.9999 1.00013C15.9999 1.27627 16.2237 1.50013 16.4999 1.50013H20.4999V5.50013C20.4999 5.77627 20.7237 6.00013 20.9999 6.00013C21.276 6.00013 21.4999 5.77627 21.4999 5.50013V1.00013ZM1.35355 21.3536L21.3534 1.35369L20.6463 0.646579L0.646447 20.6464L1.35355 21.3536Z" fill="#E7DEC1"/>
<path d="M1 0.5C0.723858 0.5 0.5 0.723858 0.5 1L0.5 5.5C0.5 5.77614 0.723857 6 1 6C1.27614 6 1.5 5.77614 1.5 5.5L1.5 1.5L5.5 1.5C5.77614 1.5 6 1.27614 6 1C6 0.723858 5.77614 0.5 5.5 0.5L1 0.5ZM20.9999 21.4999C21.276 21.4999 21.4999 21.276 21.4999 20.9999L21.4999 16.4999C21.4999 16.2237 21.276 15.9999 20.9999 15.9999C20.7237 15.9999 20.4999 16.2237 20.4999 16.4999L20.4999 20.4999L16.4999 20.4999C16.2237 20.4999 15.9999 20.7237 15.9999 20.9999C15.9999 21.276 16.2237 21.4999 16.4999 21.4999L20.9999 21.4999ZM0.646447 1.35355L20.6463 21.3534L21.3534 20.6463L1.35355 0.646447L0.646447 1.35355Z" fill="#E7DEC1"/>
</svg>
