<svg width="22" height="22" viewBox="0 0 22 22" fill="none" xmlns="http://www.w3.org/2000/svg">
<path d="M13.2559 8.32935C13.2559 8.74356 13.5916 9.07935 14.0059 9.07935L20.7559 9.07935C21.1701 9.07935 21.5059 8.74356 21.5059 8.32935C21.5059 7.91513 21.1701 7.57935 20.7559 7.57935H14.7559V1.57935C14.7559 1.16513 14.4201 0.829346 14.0059 0.829346C13.5916 0.829346 13.2559 1.16513 13.2559 1.57935L13.2559 8.32935ZM14.5362 8.85968L21.5362 1.85968L20.4755 0.799016L13.4755 7.79902L14.5362 8.85968Z" fill="#E7DEC1"/>
<path d="M8.75 14C8.75 13.5858 8.41421 13.25 8 13.25L1.25 13.25C0.835787 13.25 0.5 13.5858 0.5 14C0.5 14.4142 0.835787 14.75 1.25 14.75H7.25V20.75C7.25 21.1642 7.58579 21.5 8 21.5C8.41421 21.5 8.75 21.1642 8.75 20.75L8.75 14ZM7.46967 13.4697L0.46967 20.4697L1.53033 21.5303L8.53033 14.5303L7.46967 13.4697Z" fill="#E7DEC1"/>
</svg>
