<svg width="20" height="20" viewBox="0 0 20 20" fill="none" xmlns="http://www.w3.org/2000/svg">
<path d="M11.0527 8C11.0527 8.34518 11.3326 8.625 11.6777 8.625H17.3027C17.6479 8.625 17.9277 8.34518 17.9277 8C17.9277 7.65482 17.6479 7.375 17.3027 7.375H12.3027V2.375C12.3027 2.02982 12.0229 1.75 11.6777 1.75C11.3326 1.75 11.0527 2.02982 11.0527 2.375V8ZM12.1197 8.44194L19.1197 1.44194L18.2358 0.558058L11.2358 7.55806L12.1197 8.44194Z" fill="white"/>
<path d="M8.625 12C8.625 11.6548 8.34518 11.375 8 11.375H2.375C2.02982 11.375 1.75 11.6548 1.75 12C1.75 12.3452 2.02982 12.625 2.375 12.625H7.375V17.625C7.375 17.9702 7.65482 18.25 8 18.25C8.34518 18.25 8.625 17.9702 8.625 17.625V12ZM7.55806 11.5581L0.558058 18.5581L1.44194 19.4419L8.44194 12.4419L7.55806 11.5581Z" fill="white"/>
</svg>
