<svg width="16" height="16" viewBox="0 0 16 16" fill="none" xmlns="http://www.w3.org/2000/svg">
<path d="M7.625 9.32251C7.625 8.97733 7.34518 8.69751 7 8.69751H1.375C1.02982 8.69751 0.75 8.97733 0.75 9.32251C0.75 9.66769 1.02982 9.94751 1.375 9.94751H6.375V14.9475C6.375 15.2927 6.65482 15.5725 7 15.5725C7.34518 15.5725 7.625 15.2927 7.625 14.9475V9.32251ZM1.44194 15.7645L7.44194 9.76445L6.55806 8.88057L0.558058 14.8806L1.44194 15.7645Z" fill="#161616"/>
<path d="M8.69727 7C8.69727 7.34518 8.97709 7.625 9.32227 7.625H14.9473C15.2924 7.625 15.5723 7.34518 15.5723 7C15.5723 6.65482 15.2924 6.375 14.9473 6.375H9.94727V1.375C9.94727 1.02982 9.66744 0.75 9.32227 0.75C8.97709 0.75 8.69727 1.02982 8.69727 1.375V7ZM9.76421 7.44194L15.7642 1.44194L14.8803 0.558058L8.88032 6.55806L9.76421 7.44194Z" fill="#161616"/>
</svg>
