<svg width="22" height="22" viewBox="0 0 22 22" fill="none" xmlns="http://www.w3.org/2000/svg">
<path d="M13.502 8.16553C13.502 8.44167 13.7258 8.66553 14.002 8.66553H18.502C18.7781 8.66553 19.002 8.44167 19.002 8.16553C19.002 7.88938 18.7781 7.66553 18.502 7.66553H14.502V3.66553C14.502 3.38939 14.2781 3.16553 14.002 3.16553C13.7258 3.16553 13.502 3.38939 13.502 3.66553V8.16553ZM14.3555 8.51908L21.3533 1.52132L20.6462 0.814213L13.6484 7.81197L14.3555 8.51908Z" fill="#E7DEC1"/>
<path d="M8.49805 13.8345C8.49805 13.5583 8.27419 13.3345 7.99805 13.3345H3.49805C3.2219 13.3345 2.99805 13.5583 2.99805 13.8345C2.99805 14.1106 3.2219 14.3345 3.49805 14.3345H7.49805V18.3345C7.49805 18.6106 7.7219 18.8345 7.99805 18.8345C8.27419 18.8345 8.49805 18.6106 8.49805 18.3345V13.8345ZM7.64449 13.4809L0.646732 20.4787L1.35384 21.1858L8.3516 14.188L7.64449 13.4809Z" fill="#E7DEC1"/>
<path d="M13.834 13.5024C13.5578 13.5024 13.334 13.7263 13.334 14.0024L13.334 18.5024C13.334 18.7786 13.5578 19.0024 13.834 19.0024C14.1101 19.0024 14.334 18.7786 14.334 18.5024L14.334 14.5024L18.334 14.5024C18.6101 14.5024 18.834 14.2786 18.834 14.0024C18.834 13.7263 18.6101 13.5024 18.334 13.5024L13.834 13.5024ZM13.4804 14.356L20.4782 21.3538L21.1853 20.6466L14.1875 13.6489L13.4804 14.356Z" fill="#E7DEC1"/>
<path d="M8.16602 8.49756C8.44216 8.49756 8.66602 8.2737 8.66602 7.99756L8.66602 3.49756C8.66602 3.22142 8.44216 2.99756 8.16602 2.99756C7.88987 2.99756 7.66602 3.22142 7.66602 3.49756L7.66602 7.49756L3.66602 7.49756C3.38987 7.49756 3.16602 7.72142 3.16602 7.99756C3.16602 8.2737 3.38987 8.49756 3.66602 8.49756L8.16602 8.49756ZM8.51957 7.64401L1.52181 0.646243L0.814702 1.35335L7.81246 8.35111L8.51957 7.64401Z" fill="#E7DEC1"/>
</svg>
